<svg xmlns="http://www.w3.org/2000/svg" width="151.228" height="174.494" viewBox="0 0 151.228 174.494">
  <g id="Group_11" data-name="Group 11" transform="translate(-1946.504 241.506)">
    <path id="Path_36" data-name="Path 36" d="M137.962,17V139.146a5.834,5.834,0,0,1-5.816,5.816H15.816A5.834,5.834,0,0,1,10,139.146V17Z" transform="translate(1948.137 -214.882)" fill="#cbcbcb"/>
    <path id="Path_37" data-name="Path 37" d="M152.412,13V27.541a14.625,14.625,0,0,1-8.725,13.349,14.85,14.85,0,0,1-5.816,1.192,14.541,14.541,0,0,1-14.541-14.541,14.541,14.541,0,0,1-29.082,0,14.541,14.541,0,0,1-29.082,0,14.541,14.541,0,1,1-29.082,0A14.541,14.541,0,0,1,21.541,42.082a14.849,14.849,0,0,1-5.816-1.192A14.626,14.626,0,0,1,7,27.541V13Z" transform="translate(1942.412 -222.515)" fill="#ff5023"/>
    <path id="Path_38" data-name="Path 38" d="M137.962,17V39.073a14.85,14.85,0,0,1-5.816,1.192A14.541,14.541,0,0,1,117.6,25.725a14.541,14.541,0,0,1-29.082,0,14.541,14.541,0,0,1-29.082,0,14.541,14.541,0,0,1-29.082,0A14.541,14.541,0,0,1,15.816,40.266,14.849,14.849,0,0,1,10,39.073V17Z" transform="translate(1948.137 -214.882)" fill="#86898b"/>
    <path id="Path_39" data-name="Path 39" d="M134.962,3l17.449,29.082H7L24.449,3Z" transform="translate(1942.412 -241.598)" fill="#bebbbb"/>
    <path id="Path_40" data-name="Path 40" d="M152.412,13V27.541a14.625,14.625,0,0,1-8.725,13.349,14.85,14.85,0,0,1-5.816,1.192,14.541,14.541,0,0,1-14.541-14.541,14.541,14.541,0,0,1-29.082,0,14.541,14.541,0,0,1-29.082,0,14.541,14.541,0,1,1-29.082,0A14.541,14.541,0,0,1,21.541,42.082a14.849,14.849,0,0,1-5.816-1.192A14.626,14.626,0,0,1,7,27.541V13Z" transform="translate(1942.412 -222.515)" fill="#9a9999"/>
    <path id="Path_49" data-name="Path 49" d="M156.812,32.493,139.363,3.41A2.908,2.908,0,0,0,136.87,2H26.358a2.908,2.908,0,0,0-2.492,1.41L6.416,32.493A2.908,2.908,0,0,0,6,33.991V48.532A17.449,17.449,0,0,0,14.725,63.62v104.15a8.725,8.725,0,0,0,8.725,8.725H139.779a8.725,8.725,0,0,0,8.725-8.725V63.62a17.449,17.449,0,0,0,8.725-15.088V33.991A2.908,2.908,0,0,0,156.812,32.493ZM28,7.816H135.224l13.96,23.266H14.044ZM142.687,167.769a2.908,2.908,0,0,1-2.908,2.908H23.449a2.908,2.908,0,0,1-2.908-2.908V65.719a17.263,17.263,0,0,0,17.449-7.561,17.426,17.426,0,0,0,29.082,0,17.426,17.426,0,0,0,29.082,0,17.426,17.426,0,0,0,29.082,0,17.263,17.263,0,0,0,17.449,7.561Zm-2.908-107.6a11.633,11.633,0,0,1-11.633-11.633h-5.816a11.633,11.633,0,1,1-23.266,0H93.247a11.633,11.633,0,1,1-23.266,0H64.165a11.633,11.633,0,0,1-23.266,0H35.082a11.633,11.633,0,0,1-23.266,0V36.9h139.6V48.532A11.633,11.633,0,0,1,139.779,60.165Z" transform="translate(1940.504 -243.506)"/>
    <rect id="Rectangle_49" data-name="Rectangle 49" width="5.816" height="11.633" transform="matrix(0.866, -0.5, 0.5, 0.866, 1997.788, -164.221)"/>
    <rect id="Rectangle_50" data-name="Rectangle 50" width="5.816" height="11.633" transform="matrix(0.5, -0.866, 0.866, 0.5, 1982.886, -147.19)"/>
    <rect id="Rectangle_51" data-name="Rectangle 51" width="11.633" height="5.816" transform="translate(2035.597 -157.055) rotate(-60.005)"/>
    <rect id="Rectangle_52" data-name="Rectangle 52" width="11.633" height="5.816" transform="translate(2048.366 -146.412) rotate(-29.995)"/>
    <g id="Group_8" data-name="Group 8" transform="translate(1995.561 -152.632)">
      <g id="Path_55" data-name="Path 55" transform="translate(-1631.678 169.142)" fill="#acabb1" stroke-linecap="round" stroke-linejoin="round">
        <path d="M 1689.15673828125 -102.7575988769531 L 1686.359375 -102.7575988769531 L 1634.5 -102.7575988769531 L 1631.663330078125 -102.7575988769531 L 1632.019775390625 -105.5717849731445 L 1637.396850585938 -148.0177917480469 L 1637.673828125 -150.2035980224609 L 1639.877075195312 -150.2035980224609 L 1681.579467773438 -150.2035980224609 L 1683.813720703125 -150.2035980224609 L 1684.063720703125 -147.9833526611328 L 1688.843627929688 -105.5373611450195 L 1689.15673828125 -102.7575988769531 Z" stroke="none"/>
        <path d="M 1639.877075195312 -147.7035980224609 L 1634.5 -105.2575988769531 L 1686.359375 -105.2575988769531 L 1681.579467773438 -147.7035980224609 L 1639.877075195312 -147.7035980224609 M 1639.877075195312 -152.7035980224609 L 1681.579467773438 -152.7035980224609 C 1684.124389648438 -152.7035980224609 1686.263305664062 -150.7920532226562 1686.548095703125 -148.2631225585938 L 1691.328002929688 -105.8171234130859 C 1691.4873046875 -104.4025573730469 1691.036010742188 -102.9871520996094 1690.087524414062 -101.9257507324219 C 1689.138916015625 -100.8643493652344 1687.782836914062 -100.2575988769531 1686.359375 -100.2575988769531 L 1634.5 -100.2575988769531 C 1633.064453125 -100.2575988769531 1631.698120117188 -100.8746643066406 1630.748901367188 -101.9516906738281 C 1629.799682617188 -103.0287170410156 1629.359252929688 -104.4617614746094 1629.539672851562 -105.8859710693359 L 1634.916748046875 -148.3319702148438 C 1635.233276367188 -150.8304748535156 1637.358642578125 -152.7035980224609 1639.877075195312 -152.7035980224609 Z" stroke="none" fill="#787680"/>
      </g>
      <g id="Group_5" data-name="Group 5">
        <g id="Rectangle_58" data-name="Rectangle 58" transform="translate(14.868)" fill="none" stroke="#000" stroke-width="5">
          <rect width="22.942" height="43.017" rx="11.471" stroke="none"/>
          <rect x="2.5" y="2.5" width="17.942" height="38.017" rx="8.971" fill="none"/>
        </g>
        <g id="Path_52" data-name="Path 52" transform="translate(-1634.5 166.344)" fill="#acabb1" stroke-linecap="round" stroke-linejoin="round">
          <path d="M 1689.15673828125 -102.7575988769531 L 1686.359375 -102.7575988769531 L 1634.5 -102.7575988769531 L 1631.663330078125 -102.7575988769531 L 1632.019775390625 -105.5717849731445 L 1637.396850585938 -148.0177917480469 L 1637.673828125 -150.2035980224609 L 1639.877075195312 -150.2035980224609 L 1681.579467773438 -150.2035980224609 L 1683.813720703125 -150.2035980224609 L 1684.063720703125 -147.9833526611328 L 1688.843627929688 -105.5373611450195 L 1689.15673828125 -102.7575988769531 Z" stroke="none"/>
          <path d="M 1639.877075195312 -147.7035980224609 L 1634.5 -105.2575988769531 L 1686.359375 -105.2575988769531 L 1681.579467773438 -147.7035980224609 L 1639.877075195312 -147.7035980224609 M 1639.877075195312 -152.7035980224609 L 1681.579467773438 -152.7035980224609 C 1684.124389648438 -152.7035980224609 1686.263305664062 -150.7920532226562 1686.548095703125 -148.2631225585938 L 1691.328002929688 -105.8171234130859 C 1691.4873046875 -104.4025573730469 1691.036010742188 -102.9871520996094 1690.087524414062 -101.9257507324219 C 1689.138916015625 -100.8643493652344 1687.782836914062 -100.2575988769531 1686.359375 -100.2575988769531 L 1634.5 -100.2575988769531 C 1633.064453125 -100.2575988769531 1631.698120117188 -100.8746643066406 1630.748901367188 -101.9516906738281 C 1629.799682617188 -103.0287170410156 1629.359252929688 -104.4617614746094 1629.539672851562 -105.8859710693359 L 1634.916748046875 -148.3319702148438 C 1635.233276367188 -150.8304748535156 1637.358642578125 -152.7035980224609 1639.877075195312 -152.7035980224609 Z" stroke="none" fill="#010101"/>
        </g>
        <path id="Subtraction_1" data-name="Subtraction 1" d="M47.209,42.447H38.38L31.906,9.914l-32-3.44L.726,0h41.7l4.78,42.446Z" transform="translate(4.65 18.641)" fill="#e0e0e2"/>
        <circle id="Ellipse_21" data-name="Ellipse 21" cx="2.868" cy="2.868" r="2.868" transform="translate(14.151 17.924)"/>
        <circle id="Ellipse_22" data-name="Ellipse 22" cx="2.868" cy="2.868" r="2.868" transform="translate(32.792 17.924)"/>
      </g>
    </g>
  </g>
</svg>
