<svg xmlns="http://www.w3.org/2000/svg" width="126" height="164.348" viewBox="0 0 126 164.348">
  <g id="Group_13" data-name="Group 13" transform="translate(-1609 246)">
    <rect id="Rectangle_35" data-name="Rectangle 35" width="98.757" height="158.692" rx="4" transform="translate(1611.724 -243.276)" fill="#b1b5b8"/>
    <path id="Path_1" data-name="Path 1" d="M59.913,12.06V61.036a24.1,24.1,0,0,1-7.286-1.972L38,63.939l4.437-13.312A24.617,24.617,0,0,1,59.913,12.06Z" transform="translate(1650.435 -230.504)" fill="#86898b"/>
    <path id="Path_6" data-name="Path 6" d="M63.392,10.164A22.631,22.631,0,0,0,60.653,10,24.628,24.628,0,0,0,40.438,48.731L36,62.043l14.627-4.876A24.548,24.548,0,0,0,60.653,59.3a22.631,22.631,0,0,0,2.739-.164,24.652,24.652,0,0,0,0-48.976Z" transform="translate(1646.956 -234.087)" fill="#ffd422"/>
    <path id="Path_7" data-name="Path 7" d="M63.826,3v8.217a2.739,2.739,0,0,1-2.739,2.739H22.739A2.739,2.739,0,0,1,20,11.217V3Z" transform="translate(1619.13 -246.261)" fill="#fff"/>
    <path id="Path_13" data-name="Path 13" d="M135,48.565a27.435,27.435,0,0,0-21.913-26.843V15.7A13.712,13.712,0,0,0,99.391,2H22.7A13.712,13.712,0,0,0,9,15.7V152.652a13.712,13.712,0,0,0,13.7,13.7h76.7a13.712,13.712,0,0,0,13.7-13.7V75.409A27.435,27.435,0,0,0,135,48.565ZM41.87,7.478H80.217v5.478H41.87Zm65.739,145.174a8.217,8.217,0,0,1-8.217,8.217H22.7a8.217,8.217,0,0,1-8.217-8.217V15.7A8.217,8.217,0,0,1,22.7,7.478h13.7v5.478a5.478,5.478,0,0,0,5.478,5.478H80.217A5.478,5.478,0,0,0,85.7,12.957V7.478h13.7a8.217,8.217,0,0,1,8.217,8.217v5.478A27.375,27.375,0,0,0,84.373,63.047L80.36,75.1a2.739,2.739,0,0,0,2.6,3.6,2.777,2.777,0,0,0,.866-.14L97.474,74a27.153,27.153,0,0,0,10.135,1.953Zm0-82.174a21.767,21.767,0,0,1-8.9-1.9,2.714,2.714,0,0,0-1.979-.1l-9.439,3.147,2.7-8.111a2.739,2.739,0,0,0-.351-2.432,21.913,21.913,0,1,1,17.971,9.4Z" transform="translate(1600 -248)"/>
    <rect id="Rectangle_39" data-name="Rectangle 39" width="5.449" height="5.449" transform="translate(1625.346 -216.032)"/>
    <rect id="Rectangle_40" data-name="Rectangle 40" width="27.243" height="5.449" transform="translate(1636.243 -216.032)"/>
    <rect id="Rectangle_41" data-name="Rectangle 41" width="38.141" height="5.449" transform="translate(1625.346 -205.135)"/>
    <rect id="Rectangle_42" data-name="Rectangle 42" width="38.141" height="5.449" transform="translate(1625.346 -194.238)"/>
    <circle id="Ellipse_11" data-name="Ellipse 11" cx="3.451" cy="3.451" r="3.451" transform="translate(1692.255 -203.299)"/>
    <circle id="Ellipse_12" data-name="Ellipse 12" cx="3.451" cy="3.451" r="3.451" transform="translate(1704.333 -203.299)"/>
    <circle id="Ellipse_13" data-name="Ellipse 13" cx="3.451" cy="3.451" r="3.451" transform="translate(1715.549 -203.299)"/>
    <g id="Group_6" data-name="Group 6" transform="translate(1630.284 -181.516)">
      <g id="Path_55" data-name="Path 55" transform="translate(-1631.104 173.502)" fill="#acabb1" stroke-linecap="round" stroke-linejoin="round">
        <path d="M 1699.70263671875 -94.12596893310547 L 1696.9052734375 -94.12596893310547 L 1634.5 -94.12596893310547 L 1631.663330078125 -94.12596893310547 L 1632.019775390625 -96.94016265869141 L 1638.490234375 -148.0177917480469 L 1638.767211914062 -150.2035980224609 L 1640.970458984375 -150.2035980224609 L 1691.153564453125 -150.2035980224609 L 1693.387817382812 -150.2035980224609 L 1693.637817382812 -147.9833526611328 L 1699.389526367188 -96.90571594238281 L 1699.70263671875 -94.12596893310547 Z" stroke="none"/>
        <path d="M 1640.970458984375 -147.7035980224609 L 1634.5 -96.6259765625 L 1696.9052734375 -96.6259765625 L 1691.153564453125 -147.7035980224609 L 1640.970458984375 -147.7035980224609 M 1640.970458984375 -152.7035980224609 L 1691.153564453125 -152.7035980224609 C 1693.698486328125 -152.7035980224609 1695.83740234375 -150.7920379638672 1696.122192382812 -148.2630920410156 L 1701.873901367188 -97.18547058105469 C 1702.033203125 -95.77091979980469 1701.581909179688 -94.35551452636719 1700.633422851562 -93.29412841796875 C 1699.684814453125 -92.23272705078125 1698.328735351562 -91.6259765625 1696.9052734375 -91.6259765625 L 1634.5 -91.6259765625 C 1633.064453125 -91.6259765625 1631.698120117188 -92.2430419921875 1630.748901367188 -93.320068359375 C 1629.799682617188 -94.39707946777344 1629.359252929688 -95.83013916015625 1629.539672851562 -97.25434875488281 L 1636.010131835938 -148.3319702148438 C 1636.32666015625 -150.8304748535156 1638.452026367188 -152.7035980224609 1640.970458984375 -152.7035980224609 Z" stroke="none" fill="#787680"/>
      </g>
      <g id="Group_5" data-name="Group 5" transform="translate(0 0)">
        <g id="Rectangle_58" data-name="Rectangle 58" transform="translate(17.892)" fill="none" stroke="#000" stroke-width="5">
          <rect width="27.608" height="51.765" rx="13.804" stroke="none"/>
          <rect x="2.5" y="2.5" width="22.608" height="46.765" rx="11.304" fill="none"/>
        </g>
        <g id="Path_52" data-name="Path 52" transform="translate(-1634.5 170.135)" fill="#acabb1" stroke-linecap="round" stroke-linejoin="round">
          <path d="M 1699.70263671875 -94.12596893310547 L 1696.9052734375 -94.12596893310547 L 1634.5 -94.12596893310547 L 1631.663330078125 -94.12596893310547 L 1632.019775390625 -96.94016265869141 L 1638.490234375 -148.0177917480469 L 1638.767211914062 -150.2035980224609 L 1640.970458984375 -150.2035980224609 L 1691.153564453125 -150.2035980224609 L 1693.387817382812 -150.2035980224609 L 1693.637817382812 -147.9833526611328 L 1699.389526367188 -96.90571594238281 L 1699.70263671875 -94.12596893310547 Z" stroke="none"/>
          <path d="M 1640.970458984375 -147.7035980224609 L 1634.5 -96.6259765625 L 1696.9052734375 -96.6259765625 L 1691.153564453125 -147.7035980224609 L 1640.970458984375 -147.7035980224609 M 1640.970458984375 -152.7035980224609 L 1691.153564453125 -152.7035980224609 C 1693.698486328125 -152.7035980224609 1695.83740234375 -150.7920379638672 1696.122192382812 -148.2630920410156 L 1701.873901367188 -97.18547058105469 C 1702.033203125 -95.77091979980469 1701.581909179688 -94.35551452636719 1700.633422851562 -93.29412841796875 C 1699.684814453125 -92.23272705078125 1698.328735351562 -91.6259765625 1696.9052734375 -91.6259765625 L 1634.5 -91.6259765625 C 1633.064453125 -91.6259765625 1631.698120117188 -92.2430419921875 1630.748901367188 -93.320068359375 C 1629.799682617188 -94.39707946777344 1629.359252929688 -95.83013916015625 1629.539672851562 -97.25434875488281 L 1636.010131835938 -148.3319702148438 C 1636.32666015625 -150.8304748535156 1638.452026367188 -152.7035980224609 1640.970458984375 -152.7035980224609 Z" stroke="none" fill="#010101"/>
        </g>
        <path id="Subtraction_1" data-name="Subtraction 1" d="M56.807,51.078H46.543L40.62,10.834-.085,7.568.874,0H51.057l5.752,51.078Z" transform="translate(5.596 22.431)" fill="#e0e0e2"/>
        <circle id="Ellipse_21" data-name="Ellipse 21" cx="3.451" cy="3.451" r="3.451" transform="translate(17.029 21.569)"/>
        <circle id="Ellipse_22" data-name="Ellipse 22" cx="3.451" cy="3.451" r="3.451" transform="translate(39.46 21.569)"/>
      </g>
    </g>
  </g>
</svg>
