<svg xmlns="http://www.w3.org/2000/svg" width="179.835" height="184.108" viewBox="0 0 179.835 184.108">
  <g id="Group_10" data-name="Group 10" transform="translate(-2144.244 234.504)">
    <g id="Delivery" transform="translate(2147 -200.489)">
      <ellipse id="Ellipse_15" data-name="Ellipse 15" cx="17.875" cy="17.378" rx="17.875" ry="17.378" transform="translate(115.509 112.347)" fill="#57565c"/>
      <circle id="Ellipse_16" data-name="Ellipse 16" cx="17.378" cy="17.378" r="17.378" transform="translate(25.141 112.347)" fill="#57565c"/>
      <ellipse id="Ellipse_17" data-name="Ellipse 17" cx="5.958" cy="5.462" rx="5.958" ry="5.462" transform="translate(127.426 124.264)" fill="#acabb1"/>
      <path id="Path_28" data-name="Path 28" d="M172.242,37V48.672a5.853,5.853,0,0,1-5.836,5.836H8.836A5.853,5.853,0,0,1,3,48.672V37Z" transform="translate(1.918 57.623)" fill="#acabb1"/>
      <ellipse id="Ellipse_18" data-name="Ellipse 18" cx="5.958" cy="5.462" rx="5.958" ry="5.462" transform="translate(37.058 124.264)" fill="#acabb1"/>
      <path id="Path_31" data-name="Path 31" d="M174.16,96.355H4.918A2.918,2.918,0,0,0,2,99.273v11.672a8.754,8.754,0,0,0,8.754,8.754H28.586a20.426,20.426,0,1,0,28.532,0h61.925a20.426,20.426,0,1,0,28.532,0h20.75a8.754,8.754,0,0,0,8.754-8.754V99.273A2.918,2.918,0,0,0,174.16,96.355ZM57.441,134.289a14.59,14.59,0,1,1-14.59-14.59,14.59,14.59,0,0,1,14.59,14.59Zm90.457,0a14.59,14.59,0,1,1-14.59-14.59A14.59,14.59,0,0,1,147.9,134.289Zm23.344-23.344a2.918,2.918,0,0,1-2.918,2.918H10.754a2.918,2.918,0,0,1-2.918-2.918v-8.754H171.242Z" transform="translate(0 -4.65)"/>
      <path id="Path_34" data-name="Path 34" d="M21.754,63.508A8.754,8.754,0,1,0,13,54.754,8.754,8.754,0,0,0,21.754,63.508Zm0-11.672a2.918,2.918,0,1,1-2.918,2.918A2.918,2.918,0,0,1,21.754,51.836Z" transform="translate(21.098 74.885)"/>
      <path id="Path_35" data-name="Path 35" d="M52.754,63.508A8.754,8.754,0,1,0,44,54.754,8.754,8.754,0,0,0,52.754,63.508Zm0-11.672a2.918,2.918,0,1,1-2.918,2.918A2.918,2.918,0,0,1,52.754,51.836Z" transform="translate(80.555 74.885)"/>
      <rect id="Rectangle_45" data-name="Rectangle 45" width="5.958" height="5.958" transform="translate(-2.756 6.583)"/>
      <path id="Path_56" data-name="Path 56" d="M0,0H23.833V5.958H0Z" transform="translate(9.16 6.583)"/>
      <rect id="Rectangle_47" data-name="Rectangle 47" width="22.84" height="4.965" transform="translate(6.154 22.341)"/>
      <rect id="Rectangle_48" data-name="Rectangle 48" width="16.882" height="5.958" transform="translate(9.918 37.106)"/>
    </g>
    <g id="Group_9" data-name="Group 9" transform="translate(546.314 -63.248)">
      <g id="Group_5" data-name="Group 5" transform="translate(1635.988 -171.257)">
        <g id="Rectangle_58" data-name="Rectangle 58" transform="translate(29.64)" fill="none" stroke="#000" stroke-width="5">
          <rect width="45.737" height="85.756" rx="22.868" stroke="none"/>
          <rect x="2.5" y="2.5" width="40.737" height="80.756" rx="20.368" fill="none"/>
        </g>
        <g id="Path_52" data-name="Path 52" transform="translate(-1634.5 184.865)" fill="#acabb1" stroke-linecap="round" stroke-linejoin="round">
          <path d="M 1740.681396484375 -60.58560943603516 L 1737.884033203125 -60.58560943603516 L 1634.5 -60.58560943603516 L 1631.663330078125 -60.58560943603516 L 1632.019775390625 -63.3997917175293 L 1642.7392578125 -148.0177917480469 L 1643.016235351562 -150.20361328125 L 1645.219482421875 -150.20361328125 L 1728.35546875 -150.20361328125 L 1730.589721679688 -150.20361328125 L 1730.839721679688 -147.9833679199219 L 1740.368286132812 -63.36536026000977 L 1740.681396484375 -60.58560943603516 Z" stroke="none"/>
          <path d="M 1645.219482421875 -147.70361328125 L 1634.5 -63.08560180664062 L 1737.884033203125 -63.08560180664062 L 1728.35546875 -147.70361328125 L 1645.219482421875 -147.70361328125 M 1645.219482421875 -152.70361328125 L 1728.35546875 -152.70361328125 C 1730.900390625 -152.70361328125 1733.039306640625 -150.7920532226562 1733.324096679688 -148.2630920410156 L 1742.852661132812 -63.64509582519531 C 1743.011962890625 -62.23052978515625 1742.560668945312 -60.81515502929688 1741.612182617188 -59.75375366210938 C 1740.66357421875 -58.69235229492188 1739.307495117188 -58.08560180664062 1737.884033203125 -58.08560180664062 L 1634.5 -58.08560180664062 C 1633.064453125 -58.08560180664062 1631.698120117188 -58.70268249511719 1630.748901367188 -59.77969360351562 C 1629.799682617188 -60.85671997070312 1629.359252929688 -62.28976440429688 1629.539672851562 -63.7139892578125 L 1640.259155273438 -148.3319854736328 C 1640.57568359375 -150.8304748535156 1642.701049804688 -152.70361328125 1645.219482421875 -152.70361328125 Z" stroke="none" fill="#010101"/>
        </g>
        <path id="Subtraction_1" data-name="Subtraction 1" d="M94.111,84.618h-13.1L71.588,16.839-.11,12.305,1.449,0H84.585l9.528,84.618Z" transform="translate(9.271 37.161)" fill="#e0e0e2"/>
        <circle id="Ellipse_21" data-name="Ellipse 21" cx="5.717" cy="5.717" r="5.717" transform="translate(28.211 35.732)"/>
        <circle id="Ellipse_22" data-name="Ellipse 22" cx="5.717" cy="5.717" r="5.717" transform="translate(65.372 35.732)"/>
      </g>
    </g>
  </g>
</svg>
